<svg width="64" height="64" viewBox="0 0 64 64" fill="none" xmlns="http://www.w3.org/2000/svg">
<path d="M44.5 7C39.4775 7 35.02 8.9825 32 12.39C28.98 8.9825 24.5225 7 19.5 7C15.1256 7.00529 10.9318 8.74538 7.83858 11.8386C4.74538 14.9318 3.00529 19.1256 3 23.5C3 41.585 29.4525 56.035 30.5775 56.6425C31.0147 56.8779 31.5035 57.0012 32 57.0012C32.4965 57.0012 32.9853 56.8779 33.4225 56.6425C34.5475 56.035 61 41.585 61 23.5C60.9947 19.1256 59.2546 14.9318 56.1614 11.8386C53.0682 8.74538 48.8744 7.00529 44.5 7ZM43.1275 42.59C39.6457 45.5446 35.9236 48.2038 32 50.54C28.0764 48.2038 24.3543 45.5446 20.8725 42.59C15.455 37.9425 9 30.855 9 23.5C9 20.7152 10.1062 18.0445 12.0754 16.0754C14.0445 14.1062 16.7152 13 19.5 13C23.95 13 27.675 15.35 29.2225 19.135C29.4477 19.6868 29.8322 20.1589 30.3269 20.4913C30.8216 20.8237 31.404 21.0012 32 21.0012C32.596 21.0012 33.1784 20.8237 33.6731 20.4913C34.1678 20.1589 34.5523 19.6868 34.7775 19.135C36.325 15.35 40.05 13 44.5 13C47.2848 13 49.9555 14.1062 51.9246 16.0754C53.8938 18.0445 55 20.7152 55 23.5C55 30.855 48.545 37.9425 43.1275 42.59Z" fill="black"/>
</svg>
